<?xml version="1.0" encoding="UTF-8" standalone="no"?>
<!-- Created with Inkscape (http://www.inkscape.org/) -->

<svg
   width="200mm"
   height="200mm"
   viewBox="0 0 200 200"
   version="1.1"
   id="svg1"
   xml:space="preserve"
   inkscape:export-filename="Logo 2.png"
   inkscape:export-xdpi="300"
   inkscape:export-ydpi="300"
   inkscape:version="1.3 (0e150ed, 2023-07-21)"
   sodipodi:docname="Logo 2.svg"
   xmlns:inkscape="http://www.inkscape.org/namespaces/inkscape"
   xmlns:sodipodi="http://sodipodi.sourceforge.net/DTD/sodipodi-0.dtd"
   xmlns="http://www.w3.org/2000/svg"
   xmlns:svg="http://www.w3.org/2000/svg"><sodipodi:namedview
     id="namedview1"
     pagecolor="#ffffff"
     bordercolor="#111111"
     borderopacity="1"
     inkscape:showpageshadow="0"
     inkscape:pageopacity="0"
     inkscape:pagecheckerboard="1"
     inkscape:deskcolor="#d1d1d1"
     inkscape:document-units="mm"
     inkscape:zoom="0.49345276"
     inkscape:cx="260.40993"
     inkscape:cy="290.80798"
     inkscape:window-width="1472"
     inkscape:window-height="892"
     inkscape:window-x="0"
     inkscape:window-y="64"
     inkscape:window-maximized="0"
     inkscape:current-layer="layer1" /><defs
     id="defs1" /><g
     inkscape:label="Layer 1"
     inkscape:groupmode="layer"
     id="layer1"><path
       id="rect9-5"
       style="fill:#d6bcf5;fill-opacity:1;stroke:#3e3e3e;stroke-width:0"
       d="m 35.984583,114.20389 h 22.54091 c 0,0 0.25264,40.96395 -1.0765,42.99436 -0.48432,0.73984 -4.09208,0.94278 -9.03397,0.93326 -4.26585,-0.008 -9.95054,-0.12867 -10.42636,-0.74627 -1.53762,-1.99582 -2.00408,-43.18135 -2.00408,-43.18135 z"
       sodipodi:nodetypes="ccsssc" /><path
       id="path9"
       style="fill:#e1cdf8;fill-opacity:1;stroke:#3e3e3e;stroke-width:0"
       d="m 111.69084,50.884664 c 0,0 -35.624964,0.936068 -40.889794,3.067569 -3.33017,1.348245 -16.407032,27.654223 -18.382712,30.297472 -1.86933,2.500976 -8.906,2.942312 -13.17345,9.672118 -6.11625,9.645357 -2.25652,47.128527 -1.09154,47.735467 6.2207,3.24092 73.318376,2.62934 73.318376,2.62934 z"
       sodipodi:nodetypes="csssscc" /><text
       xml:space="preserve"
       style="font-style:normal;font-variant:normal;font-weight:bold;font-stretch:normal;font-size:126.34px;font-family:Arial;-inkscape-font-specification:'Arial Bold';fill:#7d25e0;fill-opacity:1;stroke:#3e3e3e;stroke-width:0"
       x="45.145321"
       y="153.66534"
       id="text9"
       transform="scale(1.0570647,0.94601588)"><tspan
         sodipodi:role="line"
         id="tspan9"
         style="font-style:normal;font-variant:normal;font-weight:bold;font-stretch:normal;font-family:Arial;-inkscape-font-specification:'Arial Bold';stroke-width:0"
         x="45.145321"
         y="153.66534">$</tspan></text><g
       id="g4"
       transform="translate(38.013915,25.976175)"><path
         id="rect4"
         style="fill:#9c5ae7;fill-opacity:1;stroke:#3e3e3e;stroke-width:0"
         d="m 127.76058,51.04549 h 9.69218 l -0.52866,4.170575 -9.16352,1.292291 z"
         sodipodi:nodetypes="ccccc" /><path
         id="rect3"
         style="fill:#8f45e4;fill-opacity:1;stroke:#3e3e3e;stroke-width:0"
         d="m 134.16328,46.816174 c 1.49821,-0.995615 11.08408,0.81753 12.21803,1.468512 1.54486,0.886876 2.23163,5.131665 1.46851,6.109011 -1.26118,1.615244 -9.95143,3.138932 -13.68654,2.467101 -0.80764,-0.14527 -1.35005,-9.147464 0,-10.044624 z"
         sodipodi:nodetypes="sssss" /></g><path
       id="rect9"
       style="fill:#7d25e0;fill-opacity:1;stroke:#3e3e3e;stroke-width:0"
       d="m 164.92462,114.20389 h 22.54091 c 0,0 0.25264,40.96395 -1.0765,42.99436 -0.48432,0.73984 -4.09208,0.94278 -9.03397,0.93326 -4.26585,-0.008 -9.95054,-0.12867 -10.42636,-0.74627 -1.53762,-1.99582 -2.00408,-43.18135 -2.00408,-43.18135 z"
       sodipodi:nodetypes="ccsssc" /><path
       id="rect1"
       style="fill:#9c5ae7;fill-opacity:1;stroke:#3e3e3e;stroke-width:0"
       d="m 111.64935,50.884664 c 0,0 35.62495,0.936068 40.88978,3.067569 3.33017,1.348245 16.40703,27.654223 18.38271,30.297472 1.86933,2.500976 8.906,2.942312 13.17345,9.672118 6.11625,9.645357 2.25652,47.128527 1.09154,47.735467 -6.2207,3.24092 -73.31837,2.62934 -73.31837,2.62934 z"
       sodipodi:nodetypes="csssscc" /><path
       id="rect2"
       style="fill:#ad75eb;fill-opacity:1;stroke:#3e3e3e;stroke-width:0"
       d="m 111.75307,54.460745 c 0,0 16.00144,0.546546 23.98264,1.139969 5.96421,0.443454 17.85071,1.807895 17.85071,1.807895 0,0 4.62994,7.21967 6.68725,10.978384 2.39808,4.381286 6.57814,13.462761 6.57814,13.462761 0,0 -14.91842,-1.459561 -25.94483,-2.188849 -9.64899,-0.638186 -29.00651,-0.464229 -29.00651,-0.464229 z"
       sodipodi:nodetypes="cscscscc" /><path
       id="rect5"
       style="fill:#ffffff;fill-opacity:1;stroke:#3e3e3e;stroke-width:0"
       d="m 147.47794,101.37097 31.50299,-2.566253 1.85832,12.831273 c 0,0 -5.07443,0.71187 -8.31763,0.26143 -2.61693,-0.36346 -3.08441,-1.88508 -6.14336,-2.03996 -5.05179,-0.25579 -9.56857,0.60318 -10.93608,0.36267 -3.90846,-0.68739 -7.96424,-8.84916 -7.96424,-8.84916 z"
       sodipodi:nodetypes="cccsssc" /><path
       id="rect5-8"
       style="fill:#ffffff;fill-opacity:1;stroke:#3e3e3e;stroke-width:0"
       d="M 74.09594,101.05111 42.59295,98.484851 40.73463,111.31613 c 0,0 5.07443,0.71187 8.31763,0.26142 2.61693,-0.36346 3.08441,-1.88508 6.14336,-2.03996 5.05179,-0.25579 9.56857,0.60318 10.93608,0.36267 3.90846,-0.68739 7.96424,-8.84915 7.96424,-8.84915 z"
       sodipodi:nodetypes="cccsssc" /><path
       id="rect6"
       style="fill:#721fd1;fill-opacity:1;stroke:#3e3e3e;stroke-width:0"
       d="m 111.79164,101.65937 28.66592,0.33945 4.93302,5.95448 -2.12684,10.57388 h -31.4721 z"
       sodipodi:nodetypes="cccccc" /><path
       id="rect7"
       style="fill:#721fd1;fill-opacity:1;stroke:#3e3e3e;stroke-width:0"
       d="m 111.88756,128.15738 28.58659,-0.0818 c 0,0 -2.67577,6.71086 -5.56119,8.4622 -3.29042,1.99715 -23.0254,1.55387 -23.0254,1.55387 z"
       sodipodi:nodetypes="ccscc" /><path
       id="rect8"
       style="fill:#721fd1;fill-opacity:1;stroke:#3e3e3e;stroke-width:0"
       d="m 141.24063,129.40398 c 0,0 33.56457,-2.66371 35.32499,-1.00545 2.45286,2.31051 3.04808,8.002 2.07795,9.0491 -1.22453,1.32167 -26.7451,2.01091 -26.7451,2.01091 z"
       sodipodi:nodetypes="csscc" /></g></svg>
